<?xml version="1.0" standalone="no"?>
<!DOCTYPE svg PUBLIC "-//W3C//DTD SVG 20010904//EN"
 "http://www.w3.org/TR/2001/REC-SVG-20010904/DTD/svg10.dtd">
<svg version="1.0" xmlns="http://www.w3.org/2000/svg"
 width="512.000000pt" height="512.000000pt" viewBox="0 0 512.000000 512.000000"
 preserveAspectRatio="xMidYMid meet">

<g transform="translate(0.000000,512.000000) scale(0.100000,-0.100000)"
fill="#000000" stroke="none">
<path d="M2440 4034 c-48 -22 -209 -179 -1226 -1197 -1123 -1123 -1173 -1174
-1193 -1230 -27 -73 -27 -131 1 -204 17 -48 40 -77 137 -174 143 -144 177
-163 286 -164 58 0 91 5 120 19 27 13 355 333 1018 995 l977 976 978 -977
c537 -537 993 -984 1012 -994 19 -9 67 -19 106 -22 110 -7 160 20 305 166 97
98 119 127 137 175 27 72 28 131 2 199 -18 49 -117 151 -1202 1235 -924 923
-1193 1187 -1228 1202 -66 30 -159 28 -230 -5z"/>
</g>
</svg>
